<svg xmlns="http://www.w3.org/2000/svg" xmlns:xlink="http://www.w3.org/1999/xlink" version="1.1" width="1000" height="1000" viewBox="0 0 1000 1000" xml:space="preserve">
<rect x="0" y="0" width="100%" height="100%" fill="#ffffff"/>
<g transform="matrix(0 -7.4274 7.4274 0 500.0014 499.9986)" id="558149">
<path style="stroke: none; stroke-width: 1; stroke-dasharray: none; stroke-linecap: butt; stroke-dashoffset: 0; stroke-linejoin: miter; stroke-miterlimit: 4; is-custom-font: none; font-file-url: none; fill: rgb(255,0,0); fill-rule: nonzero; opacity: 1;" vector-effect="non-scaling-stroke" transform=" translate(-61.44, -58.7625)" d="M 55.13 6.31 a 6.31 6.31 0 0 1 12.62 0 V 53.59 h 48.82 a 6.32 6.32 0 0 1 0 12.63 H 6.31 a 6.32 6.32 0 0 1 0 -12.63 H 55.13 V 6.31 Z m 29.8 98.58 a 6.32 6.32 0 1 1 0 12.63 H 38 a 6.32 6.32 0 1 1 0 -12.63 Z m 16.55 -25.65 a 6.32 6.32 0 0 1 0 12.63 H 21.4 a 6.32 6.32 0 0 1 0 -12.63 Z" stroke-linecap="round"/>
</g>
</svg>